<?xml version="1.0" standalone="no"?>
<!DOCTYPE svg PUBLIC "-//W3C//DTD SVG 20010904//EN"
 "http://www.w3.org/TR/2001/REC-SVG-20010904/DTD/svg10.dtd">
<svg version="1.0" xmlns="http://www.w3.org/2000/svg"
 width="500.000000pt" height="500.000000pt" viewBox="0 0 500.000000 500.000000"
 preserveAspectRatio="xMidYMid meet">
<metadata>
Created by potrace 1.14, written by Peter Selinger 2001-2017
</metadata>
<g transform="translate(0.000000,500.000000) scale(0.100000,-0.100000)"
fill="#000000" stroke="none">
<path d="M0 2500 l0 -2500 2500 0 2500 0 0 2500 0 2500 -2500 0 -2500 0 0
-2500z m3725 1600 c78 -25 150 -59 210 -100 69 -47 143 -80 179 -80 48 0 65
29 91 153 5 25 9 27 53 27 l47 0 -6 -97 c-4 -54 -7 -170 -8 -258 -1 -88 -4
-238 -8 -332 l-6 -173 -43 0 c-48 0 -41 -16 -65 140 -13 87 -57 226 -95 302
-128 254 -306 368 -575 368 -165 0 -297 -55 -394 -162 -80 -89 -114 -186 -115
-323 0 -228 105 -382 389 -570 l150 -100 -337 -3 -337 -2 -20 26 c-149 197
-199 458 -134 712 63 247 277 429 574 488 110 21 360 13 450 -16z m-1485 -61
l0 -35 -87 -12 c-121 -16 -158 -28 -191 -61 -54 -55 -56 -66 -59 -573 l-4
-468 -194 0 -193 0 -4 458 c-4 392 -7 464 -21 508 -29 87 -77 116 -226 135
l-91 13 0 35 0 36 535 0 535 0 0 -36z m1610 -1300 c11 -7 5 -8 -20 -4 -42 7
-64 -11 -73 -62 -6 -33 -6 -33 36 -34 l42 -2 -40 -6 -40 -6 -5 -125 -6 -125
-2 128 c-2 113 -4 127 -19 128 -16 1 -16 2 -2 6 10 2 20 19 24 39 11 61 63 92
105 63z m-2743 -21 c-3 -8 -6 -5 -6 6 -1 11 2 17 5 13 3 -3 4 -12 1 -19z
m1723 -54 l0 -76 31 27 c25 20 40 25 72 23 63 -5 79 -34 85 -157 3 -72 1 -101
-7 -101 -7 0 -11 33 -11 105 0 92 -3 108 -20 125 -24 24 -67 26 -100 3 -45
-31 -49 -44 -50 -140 0 -55 -4 -93 -10 -93 -6 0 -10 67 -10 180 0 113 4 180
10 180 6 0 10 -32 10 -76z m367 54 c-3 -8 -6 -5 -6 6 -1 11 2 17 5 13 3 -3 4
-12 1 -19z m63 7 c0 -8 -4 -15 -10 -15 -5 0 -10 7 -10 15 0 8 5 15 10 15 6 0
10 -7 10 -15z m1005 -337 c29 -6 29 -6 -5 -5 l-35 2 0 180 -1 180 6 -175 5
-175 30 -7z m307 -8 c-1 -2 -5 6 -8 17 l-6 22 -28 -21 c-80 -59 -190 6 -190
112 0 108 111 170 189 104 l31 -26 2 79 c1 43 5 -3 8 -102 3 -99 4 -182 2
-185z m-3479 -61 c-10 -10 -25 -18 -33 -19 -30 -4 -60 0 -60 8 0 5 14 7 30 4
20 -3 37 2 50 13 18 16 20 33 22 169 l2 151 3 -154 c3 -138 2 -157 -14 -172z
m274 297 c26 -23 28 -29 33 -130 3 -58 2 -106 -2 -106 -5 0 -8 10 -8 22 0 20
-1 20 -19 4 -50 -45 -151 -34 -171 19 -24 64 41 112 137 100 59 -7 62 -3 42
54 -18 51 -74 67 -131 37 -16 -8 -28 -11 -28 -7 0 14 43 30 82 30 25 1 46 -7
65 -23z m142 -141 l-5 -100 -1 135 c0 74 2 119 6 100 3 -19 3 -80 0 -135z
m167 144 c16 -18 19 -38 20 -133 l2 -111 -8 110 c-4 61 -8 111 -9 112 -28 40
-74 43 -125 8 -20 -13 -36 -20 -36 -16 0 5 15 18 33 30 42 27 98 27 123 0z
m309 -11 c24 -22 38 -45 42 -70 l6 -38 -117 0 c-111 0 -116 -1 -116 -21 0 -12
15 -36 34 -55 45 -45 99 -47 147 -7 18 15 30 21 27 13 -9 -27 -56 -53 -95 -53
-73 0 -123 54 -123 133 0 116 114 173 195 98z m426 11 l24 -21 -25 16 c-32 21
-98 21 -122 -1 -10 -9 -18 -28 -18 -43 0 -29 15 -39 94 -59 73 -19 93 -57 56
-103 -32 -42 -128 -42 -161 -1 -13 16 -12 16 11 0 35 -24 114 -23 140 3 40 40
19 72 -65 96 -33 9 -66 21 -72 26 -22 18 -16 75 9 92 33 23 101 20 129 -5z
m283 0 c14 -11 26 -26 26 -32 -1 -7 -6 -5 -13 4 -51 66 -152 45 -183 -38 -16
-40 -16 -46 0 -87 9 -24 28 -51 41 -60 38 -25 98 -20 134 10 19 15 29 20 25
11 -3 -9 -15 -22 -27 -30 -102 -66 -226 38 -187 157 26 79 123 113 184 65z
m586 5 c59 -36 79 -127 40 -191 -23 -38 -51 -55 -96 -56 -77 -2 -130 61 -121
146 4 42 10 56 41 84 41 38 90 44 136 17z m196 -14 c25 22 45 30 72 30 70 0
83 -26 80 -162 l-1 -103 -6 111 c-4 72 -11 117 -20 127 -27 34 -116 11 -143
-36 -7 -12 -16 -62 -19 -112 -5 -81 -6 -77 -6 45 0 74 2 120 4 102 l4 -33 35
31z m594 15 c33 -17 60 -61 60 -100 l0 -25 -115 0 c-74 0 -115 -4 -115 -10 0
-21 30 -69 52 -84 36 -25 100 -21 133 9 15 14 25 20 23 14 -9 -26 -57 -52 -96
-52 -70 0 -122 60 -122 140 0 94 96 152 180 108z m-2174 -817 c-13 -588 -45
-807 -147 -1009 -100 -199 -282 -356 -498 -429 -63 -21 -229 -50 -288 -50 -32
0 -33 2 -33 39 l0 40 48 6 c74 9 191 44 237 71 61 35 148 131 184 202 37 73
65 172 87 307 14 80 18 200 21 613 l5 512 196 0 195 0 -7 -302z m2523 262 c52
-174 29 -427 -54 -595 -137 -279 -490 -446 -886 -421 -179 11 -311 51 -476
143 -114 64 -147 77 -179 69 -30 -8 -58 -65 -69 -138 l-7 -48 -50 0 -50 0 6
83 c3 45 9 272 12 505 l7 423 46 -3 46 -3 8 -80 c12 -120 54 -295 96 -400 125
-311 309 -448 623 -462 117 -5 133 -4 210 20 189 59 312 184 353 359 19 82 19
248 0 322 -21 82 -63 161 -113 218 l-44 48 254 0 255 0 12 -40z"/>
<path d="M4402 2614 c-29 -20 -52 -66 -52 -104 0 -101 106 -156 179 -94 28 23
31 31 31 86 0 70 -10 92 -50 113 -37 19 -80 19 -108 -1z"/>
<path d="M1250 2509 c-13 -5 -28 -15 -32 -22 -14 -22 -8 -64 10 -80 35 -32
140 -13 156 28 9 23 7 63 -2 69 -18 11 -109 15 -132 5z"/>
<path d="M1834 2596 c-21 -21 -34 -44 -34 -60 l0 -26 110 0 c121 0 125 2 95
60 -18 35 -62 60 -106 60 -22 0 -41 -10 -65 -34z"/>
<path d="M3168 2614 c-73 -39 -76 -159 -6 -208 66 -47 168 10 168 93 0 103
-81 160 -162 115z"/>
<path d="M3952 2614 c-24 -17 -52 -64 -52 -89 0 -13 17 -15 111 -15 l112 0 -7
33 c-9 46 -57 87 -104 87 -21 0 -48 -7 -60 -16z"/>
</g>
</svg>
